# xmcd CD database file
#
# Track frame offsets:
#	150
#	12999
#	32166
#	52076
#	65966
#	83383
#	102155
#	119827
#	135700
#	155515
#	179169
#
# Disc length: 2582 seconds
#
# Revision: 0
# Processed by: cddbd v1.5PL3 Copyright (c) Steve Scherf et al.
# Submitted via: NeoAudio 9.9.9
#
DISCID=9f0a140b
DTITLE=John Berry - I Give My Heart
DYEAR=2004
DGENRE=Country
TTITLE0=Time in a Bottle
TTITLE1=Will You Marry Me
TTITLE2=Let's Stay Together
TTITLE3=If
TTITLE4=I Just Wanna Stop
TTITLE5=Your Love Amazes Me
TTITLE6=Lady
TTITLE7=I Give My Heart
TTITLE8=Since the Day That I Met You
TTITLE9=Love Look What You've Done To Me
TTITLE10=Faithfully
EXTD=YEAR: 2004
EXTT0=
EXTT1=
EXTT2=
EXTT3=
EXTT4=
EXTT5=
EXTT6=
EXTT7=
EXTT8=
EXTT9=
EXTT10=
PLAYORDER=
